<svg width="20" height="20" viewBox="0 0 20 20" fill="none" xmlns="http://www.w3.org/2000/svg">
<g clip-path="url(#clip0)">
<path d="M15.2143 -7.62939e-06C13.9362 -7.62939e-06 12.7344 0.498057 11.8305 1.40197L8.10379 5.12871C8.3886 5.08895 8.67315 5.04577 8.96429 5.04577C9.76704 5.04577 10.5536 5.20172 11.2768 5.49088L13.5981 3.16954C14.0302 2.73801 14.604 2.49997 15.2143 2.49997C16.4747 2.49997 17.5001 3.52535 17.5001 4.78574C17.5001 5.39611 17.2621 5.96982 16.8305 6.40194L12.6521 10.5804C11.7878 11.4434 10.284 11.4441 9.41969 10.581L7.65332 12.3498C8.55666 13.2526 9.75843 13.75 11.0359 13.75C12.314 13.75 13.5157 13.2519 14.4197 12.348L18.5982 8.16954C19.5021 7.26562 20.0001 6.06381 20.0001 4.78574C20.0001 2.14661 17.8535 -7.62939e-06 15.2143 -7.62939e-06V-7.62939e-06Z" fill="white"/>
<path d="M8.7014 14.531L6.40198 16.8305C5.96987 17.262 5.39612 17.5 4.78578 17.5C3.5254 17.5 2.50002 16.4746 2.50002 15.2143C2.50002 14.6039 2.73805 14.0302 3.16959 13.5981L7.34807 9.41958C8.21234 8.55655 9.71623 8.55593 10.5805 9.41896L12.3469 7.65015C10.5396 5.84472 7.38837 5.84414 5.5805 7.65198L1.40198 11.8305C0.498025 12.7344 0 13.9361 0 15.2142C0 17.8534 2.14661 20 4.78575 20C6.06382 20 7.26559 19.5019 8.16955 18.598L11.8468 14.9207C11.5783 14.9568 11.3112 15 11.0357 15C10.2206 15 9.43114 14.837 8.7014 14.531V14.531Z" fill="white"/>
</g>
<defs>
<clipPath id="clip0">
<rect width="20" height="20" fill="white"/>
</clipPath>
</defs>
</svg>
